# xmcd
#
# Track frame offsets: 
#        150
#        12472
#        30500
#        43103
#        57756
#        78027
#        91914
#        111121
#        123199
#        136379
#        147942
#        150041
#        187723
#
# Disc length: 2708 seconds
#
# Revision: 0
# Processed by: cddbd v1.5.2PL0 Copyright (c) Steve Scherf et al.
# Submitted via: ExactAudioCopy v0.95b4
#
DISCID=910a920d
DTITLE=The Beatles  - The Beatles CD 2 (MFSL Ebbetts)  
DYEAR=1900
DGENRE=
TTITLE0=Birthday
TTITLE1=Yer Blues
TTITLE2=Mother Nature's Son
TTITLE3=Sexy Sadie
TTITLE4=Helter Skelter
TTITLE5=Long Long Long
TTITLE6=Revolution 1
TTITLE7=Honey Pie
TTITLE8=Savoy Truffle
TTITLE9=Cry Baby Cry
TTITLE10=Can You Take Me Back
TTITLE11=Revolution 9
TTITLE12=Good Night
EXTD=
EXTT0=
EXTT1=
EXTT2=
EXTT3=
EXTT4=
EXTT5=
EXTT6=
EXTT7=
EXTT8=
EXTT9=
EXTT10=
EXTT11=
EXTT12=
PLAYORDER=
